<?xml version="1.0" encoding="UTF-8" standalone="no"?>
<svg
   xmlns:dc="http://purl.org/dc/elements/1.1/"
   xmlns:cc="http://creativecommons.org/ns#"
   xmlns:rdf="http://www.w3.org/1999/02/22-rdf-syntax-ns#"
   xmlns:svg="http://www.w3.org/2000/svg"
   xmlns="http://www.w3.org/2000/svg"
   height="100"
   width="100"
   xml:space="preserve"
   viewBox="0 0 100 100"
   y="0px"
   x="0px"
   id="Layer_1"
   version="1.1"><metadata
     id="metadata75"><rdf:RDF><cc:Work
         rdf:about=""><dc:format>image/svg+xml</dc:format><dc:type
           rdf:resource="http://purl.org/dc/dcmitype/StillImage" /><dc:title></dc:title></cc:Work></rdf:RDF></metadata><defs
     id="defs73" /><g
     transform="scale(0.1953125)"
     id="g4593"><g
       id="g4571"><circle
         r="256"
         id="circle2"
         cy="256"
         cx="256"
         style="fill:#ffc61b" /><path
         id="path4"
         d="m 247.853,415.275 84.985,84.985 C 431.061,469.392 503.753,380.921 511.335,274.44 L 356.704,119.811 Z"
         style="fill:#d48b07" /><rect
         id="rect6"
         height="104.296"
         width="85.333"
         style="fill:#fcd088"
         y="293.685"
         x="213.33299" /><rect
         id="rect8"
         height="104.296"
         width="42.379002"
         style="fill:#ddab62"
         y="293.685"
         x="256.293" /><path
         id="path10"
         d="m 347.529,205.44 c 0.459,-4.244 0.698,-8.428 0.698,-12.509 0,-53.974 -41.293,-97.728 -92.229,-97.728 -50.936,0 -92.229,43.754 -92.229,97.728 0,4.08 0.24,8.264 0.698,12.509 -8.945,2.326 -13.202,16.087 -9.506,30.817 3.708,14.776 14.014,24.921 23.018,22.661 0.821,-0.205 1.586,-0.538 2.326,-0.927 16.667,33.452 44.351,60.594 75.693,60.594 31.342,0 59.027,-27.139 75.693,-60.594 0.74,0.39 1.505,0.722 2.326,0.927 9.004,2.26 19.309,-7.885 23.018,-22.661 3.697,-14.73 -0.559,-28.494 -9.506,-30.817 z"
         style="fill:#ffedb5" /><path
         id="path12"
         d="m 347.529,205.44 c 0.459,-4.244 0.698,-8.428 0.698,-12.509 0,-53.872 -41.138,-97.556 -91.941,-97.721 v 223.365 c 31.223,-0.165 58.79,-27.236 75.405,-60.585 0.74,0.39 1.505,0.722 2.326,0.927 9.004,2.26 19.309,-7.885 23.018,-22.661 3.697,-14.729 -0.559,-28.493 -9.506,-30.816 z"
         style="fill:#e8cf89" /><g
         id="g18"><path
           id="path14"
           d="m 356.488,364.391 -43.946,-12.235 -8.289,-11.593 c -1.488,-2.17 -4.299,-2.988 -6.718,-1.953 l -41.538,17.894 -41.289,-17.877 c -2.401,-1.046 -5.206,-0.26 -6.713,1.881 l -8.311,11.648 -44.247,11.804 c -22.883,4.577 -39.938,21.854 -39.938,45.19 v 60.276 c 40.262,26.719 88.557,42.294 140.498,42.294 43.898,0 85.199,-11.117 121.242,-30.689 6.603,-4.087 13.028,-8.268 19.256,-12.438 v -59.445 c 0.002,-23.334 -17.122,-40.18 -40.007,-44.757 z"
           style="fill:#71e2ef" /><path
           id="path16"
           d="m 255.998,356.504 -41.289,-17.877 c -2.401,-1.046 -5.206,-0.26 -6.713,1.881 l -8.311,11.648 -44.247,11.804 c -22.883,4.577 -39.938,21.854 -39.938,45.19 v 60.276 c 40.262,26.719 88.557,42.296 140.498,42.296 0.097,0 0.191,-0.005 0.288,-0.005 V 356.38 Z"
           style="fill:#71e2ef" /></g><g
         id="g24"><path
           id="path20"
           d="m 356.488,364.391 -43.946,-12.235 -8.289,-11.593 c -1.486,-2.17 -4.299,-2.988 -6.718,-1.953 l -41.25,17.772 V 511.72 c 43.791,-0.048 84.99,-11.155 120.954,-30.684 6.603,-4.089 13.028,-8.268 19.256,-12.438 v -59.445 c 0.002,-23.339 -17.122,-40.185 -40.007,-44.762 z"
           style="fill:#38c6d9" /><path
           id="path22"
           d="M 300.408,401.689 256,357.421 l -44.408,44.268 -11.905,-49.533 -14.364,6.273 11.597,146.382 c 18.961,4.51 38.74,6.911 59.08,6.911 25.357,0 49.84,-3.727 72.952,-10.633 l -2.282,-142.193 -14.126,-6.74 z"
           style="fill:#38c6d9" /></g><path
         id="path26"
         d="m 326.668,358.896 -14.126,-6.74 -12.136,49.533 -44.12,-43.98 v 154.009 c 25.254,-0.028 49.64,-3.748 72.664,-10.628 z"
         style="fill:#2ba8b2" /><path
         id="path28"
         d="m 357.762,361.951 -45.22,-9.795 -56.467,127.378 -56.391,-127.378 -45.451,9.795 c -23.023,4.605 -39.596,24.821 -39.596,48.3 v 59.194 C 155.148,496.326 203.74,512 256,512 c 52.258,0 100.85,-15.672 141.359,-42.555 V 410.25 c 0,-23.478 -16.572,-43.694 -39.597,-48.299 z"
         style="fill:#ffffff" /><path
         id="path30"
         d="m 397.359,410.252 c 0,-23.48 -16.574,-43.696 -39.596,-48.3 l -45.22,-9.795 -56.256,126.902 v 32.937 c 52.15,-0.057 100.638,-15.717 141.072,-42.548 z"
         style="fill:#e0e2e2" /><path
         id="path32"
         d="m 204.138,170.667 c 0,0 40.081,38.357 121.966,24.566 0,0 7.94,-1.998 21.425,10.207 0,0 22.535,-32.618 9.175,-85.628 0,0 -41.374,-13.36 -60.768,-25.428 -19.394,-12.067 -71.111,-24.997 -82.747,11.205 0,0 -37.495,-4.741 -47.838,34.047 -10.343,38.788 -0.883,65.803 -0.883,65.803 0,0 19.414,-46.84 39.67,-34.772 z"
         style="fill:#494948" /><path
         id="path34"
         d="m 356.704,119.811 c 0,0 -41.374,-13.36 -60.768,-25.428 -8.809,-5.482 -24.288,-11.124 -39.65,-12.276 v 112.509 c 18.358,3.927 41.605,5.368 69.818,0.615 0,0 7.94,-1.998 21.425,10.207 0,0.002 22.535,-32.616 9.175,-85.627 z"
         style="fill:#333333" /><path
         id="path36"
         d="m 312.542,352.156 13.074,18.249 c 1.727,2.312 1.357,5.568 -0.843,7.433 l -15.729,13.329 c -2.844,2.41 -2.489,6.897 0.696,8.832 l 11.598,7.042 c 3.062,1.858 3.534,6.113 0.955,8.599 l -66.219,63.893 z"
         style="fill:#afafaf" /><path
         id="path38"
         d="m 199.685,352.156 -13.074,18.249 c -1.727,2.312 -1.357,5.568 0.843,7.433 l 15.729,13.329 c 2.844,2.41 2.489,6.897 -0.696,8.832 l -11.598,7.042 c -3.062,1.858 -3.534,6.113 -0.955,8.599 l 66.141,63.893 z"
         style="fill:#e0e2e2" /></g></g><g
     transform="translate(0,-412)"
     id="g40" /><g
     transform="translate(0,-412)"
     id="g42" /><g
     transform="translate(0,-412)"
     id="g44" /><g
     transform="translate(0,-412)"
     id="g46" /><g
     transform="translate(0,-412)"
     id="g48" /><g
     transform="translate(0,-412)"
     id="g50" /><g
     transform="translate(0,-412)"
     id="g52" /><g
     transform="translate(0,-412)"
     id="g54" /><g
     transform="translate(0,-412)"
     id="g56" /><g
     transform="translate(0,-412)"
     id="g58" /><g
     transform="translate(0,-412)"
     id="g60" /><g
     transform="translate(0,-412)"
     id="g62" /><g
     transform="translate(0,-412)"
     id="g64" /><g
     transform="translate(0,-412)"
     id="g66" /><g
     transform="translate(0,-412)"
     id="g68" /></svg>