<?xml version="1.0" encoding="UTF-8" standalone="no"?>
<svg
   xmlns:dc="http://purl.org/dc/elements/1.1/"
   xmlns:cc="http://creativecommons.org/ns#"
   xmlns:rdf="http://www.w3.org/1999/02/22-rdf-syntax-ns#"
   xmlns:svg="http://www.w3.org/2000/svg"
   xmlns="http://www.w3.org/2000/svg"
   height="512"
   width="512"
   xml:space="preserve"
   style="opacity:1"
   viewBox="0 0 512 512"
   y="0px"
   x="0px"
   id="_x31_0"
   version="1.1"><metadata
     id="metadata13"><rdf:RDF><cc:Work
         rdf:about=""><dc:format>image/svg+xml</dc:format><dc:type
           rdf:resource="http://purl.org/dc/dcmitype/StillImage" /><dc:title></dc:title></cc:Work></rdf:RDF></metadata><defs
     id="defs11" /><style
     id="style2"
     type="text/css">
	.st0{fill:#374149;}
  </style><g
     transform="matrix(0.46146418,0,0,0.46146418,137.86494,137.86517)"
     style="fill:#000000;fill-opacity:1;stroke:none"
     id="g6"><path
       id="path4"
       style="fill:#000000;fill-opacity:1;stroke:none"
       d="M 490.059,227.948 264.739,3.386 C 264.345,2.996 263.836,2.829 263.405,2.502 262.955,2.155 262.49,1.847 262,1.571 c -0.951,-0.537 -1.906,-0.927 -2.94,-1.192 -0.438,-0.11 -0.872,-0.197 -1.322,-0.26 -1.132,-0.158 -2.226,-0.158 -3.354,-0.004 -0.454,0.063 -0.9,0.146 -1.338,0.256 -1.03,0.261 -1.977,0.647 -2.92,1.172 -0.494,0.277 -0.963,0.588 -1.417,0.932 -0.43,0.327 -0.939,0.485 -1.33,0.872 L 21.981,226.014 c -2.344,2.317 -3.662,5.474 -3.662,8.765 v 264.897 c 0,6.807 5.517,12.324 12.32,12.324 h 196.126 c 6.803,0 12.32,-5.517 12.32,-12.324 V 386.639 c 0,-6.807 5.517,-12.324 12.324,-12.324 h 9.179 c 6.803,0 12.32,5.517 12.32,12.324 v 113.037 c 0,6.807 5.517,12.324 12.324,12.324 h 196.126 c 6.807,0 12.324,-5.517 12.324,-12.324 V 236.678 c -0.001,-3.276 -1.307,-6.417 -3.623,-8.73 z m -300.962,108.7 v 113.041 c 0,6.807 -5.517,12.324 -12.324,12.324 H 80.63 c -6.807,0 -12.324,-5.517 -12.324,-12.324 V 255.666 c 0,-3.294 1.318,-6.452 3.662,-8.764 L 247.221,73.768 c 4.818,-4.755 12.566,-4.739 17.36,0.039 l 175.486,174.898 c 2.32,2.309 3.626,5.45 3.626,8.725 v 192.258 c 0,6.807 -5.517,12.324 -12.324,12.324 h -96.151 c -6.803,0 -12.32,-5.517 -12.32,-12.324 v -113.04 c 0,-6.803 -5.517,-12.32 -12.324,-12.32 H 201.417 c -6.803,0 -12.32,5.517 -12.32,12.32 z"
       class="st0" /></g><path
     d="M 61.999222,88.967973 A 256,256 0 0 1 422.63298,61.65636 256,256 0 0 1 450.68568,422.23323 256,256 0 0 1 90.167227,451.0269 256,256 0 0 1 60.632706,90.568382"
     id="path4490"
     style="opacity:0.19800002;fill:#000000;fill-opacity:1;fill-rule:nonzero;stroke:none;stroke-width:1.1198523;stroke-linejoin:round;stroke-miterlimit:4;stroke-dasharray:none;stroke-opacity:1" /></svg>