<?xml version="1.0" encoding="UTF-8" standalone="no"?>
<svg
   xmlns:dc="http://purl.org/dc/elements/1.1/"
   xmlns:cc="http://creativecommons.org/ns#"
   xmlns:rdf="http://www.w3.org/1999/02/22-rdf-syntax-ns#"
   xmlns:svg="http://www.w3.org/2000/svg"
   xmlns="http://www.w3.org/2000/svg"
   height="512"
   width="512"
   xml:space="preserve"
   style="opacity:1"
   viewBox="0 0 512 512"
   y="0px"
   x="0px"
   id="_x31_0"
   version="1.1"><metadata
     id="metadata13"><rdf:RDF><cc:Work
         rdf:about=""><dc:format>image/svg+xml</dc:format><dc:type
           rdf:resource="http://purl.org/dc/dcmitype/StillImage" /><dc:title></dc:title></cc:Work></rdf:RDF></metadata><defs
     id="defs11" /><style
     id="style2"
     type="text/css">
	.st0{fill:#374149;}
  </style><path
     d="M 61.999222,88.967973 A 256,256 0 0 1 422.63298,61.65636 256,256 0 0 1 450.68568,422.23323 256,256 0 0 1 90.167227,451.0269 256,256 0 0 1 60.632706,90.568382"
     id="path4490"
     style="opacity:0.203;fill:#000000;fill-opacity:1;fill-rule:nonzero;stroke:none;stroke-width:1.0335027;stroke-linejoin:round;stroke-miterlimit:4;stroke-dasharray:none;stroke-opacity:1" /><g
     style="fill:#000000;fill-opacity:1"
     transform="matrix(0.55812685,0,0,0.54573181,113.11955,116.29266)"
     id="g6"><path
       style="fill:#000000;fill-opacity:1"
       id="path4"
       d="m 450.433,186.301 c -8.922,-21.516 -29.742,-35.418 -53.031,-35.418 H 359.468 L 338.842,150.797 379.46,88.93 C 391.058,71.254 392.022,48.731 381.983,30.137 371.949,11.55 352.589,0 331.465,0 h -96.379 c -20.543,0 -39.645,11.078 -49.84,28.914 L 64.714,239.461 c -10.137,17.707 -10.074,39.668 0.16,57.324 10.234,17.649 29.27,28.614 49.672,28.614 h 28.844 l 12.484,0.07 -52.515,107.371 c -8.394,17.152 -7.39,37.046 2.691,53.207 9.988,16.007 27.895,25.953 46.735,25.953 14.66,0 28.469,-5.746 38.875,-16.176 L 438.05,248.855 c 16.45,-16.488 21.309,-41.042 12.383,-62.554 z m -212.566,88.058 0.078,-0.16 H 114.546 c -0.434,0 -0.84,-0.086 -1.242,-0.168 -0.277,-0.058 -0.55,-0.125 -0.816,-0.214 -0.758,-0.266 -1.43,-0.668 -2.008,-1.176 -0.218,-0.195 -0.422,-0.398 -0.613,-0.622 -0.504,-0.586 -0.891,-1.254 -1.153,-1.98 -0.098,-0.282 -0.172,-0.558 -0.226,-0.844 -0.156,-0.754 -0.172,-1.531 -0.027,-2.32 0.05,-0.278 0.129,-0.547 0.218,-0.821 0.129,-0.39 0.254,-0.781 0.469,-1.16 L 229.691,54.328 c 1.11,-1.934 3.168,-3.129 5.394,-3.129 h 96.379 c 4.941,0 7.91,5.496 5.195,9.633 l -59.817,91.11 -32.918,49.98 h 0.102 l -0.102,0.164 h 153.477 c 5.531,0 8.312,6.688 4.402,10.61 L 155.413,459.66 c -0.797,0.797 -1.722,1.141 -2.629,1.141 -2.512,0 -4.813,-2.645 -3.434,-5.465 l 61.355,-125.442 27.238,-55.535 z"
       class="st0" /></g></svg>