<?xml version="1.0" encoding="UTF-8" standalone="no"?>
<svg
   xmlns:dc="http://purl.org/dc/elements/1.1/"
   xmlns:cc="http://creativecommons.org/ns#"
   xmlns:rdf="http://www.w3.org/1999/02/22-rdf-syntax-ns#"
   xmlns:svg="http://www.w3.org/2000/svg"
   xmlns="http://www.w3.org/2000/svg"
   height="511.91672"
   width="512.01202"
   xml:space="preserve"
   style="opacity:1"
   viewBox="0 0 512.01202 511.91672"
   y="0px"
   x="0px"
   id="_x31_0"
   version="1.1"><metadata
     id="metadata13"><rdf:RDF><cc:Work
         rdf:about=""><dc:format>image/svg+xml</dc:format><dc:type
           rdf:resource="http://purl.org/dc/dcmitype/StillImage" /><dc:title></dc:title></cc:Work></rdf:RDF></metadata><defs
     id="defs11" /><style
     id="style2"
     type="text/css">
	.st0{fill:#374149;}
  </style><g
     transform="matrix(0.52118644,0,0,0.52118644,122.58229,122.53463)"
     style="fill:#000000;fill-opacity:1;stroke:none"
     id="g6"><path
       style="fill:#000000;fill-opacity:1;stroke:none"
       id="path4"
       d="M 375.555,0 H 136.375 C 117.313,0 101.84,15.473 101.84,34.606 V 473.73 c 0,21.153 17.117,38.27 38.27,38.27 h 231.711 c 21.222,0 38.339,-17.117 38.339,-38.27 V 34.606 C 410.16,15.473 394.688,0 375.555,0 Z m -157.86,48.957 c 0,-3.961 3.211,-7.175 7.172,-7.175 h 62.266 c 3.961,0 7.176,3.214 7.176,7.175 0,3.887 -3.215,7.102 -7.176,7.102 h -62.266 c -3.961,-10e-4 -7.172,-3.215 -7.172,-7.102 z m 65.176,409.078 c -0.598,14.278 -12.406,25.637 -26.906,25.637 -14.426,0 -26.238,-11.359 -26.836,-25.637 0.598,-14.352 12.332,-25.715 26.836,-25.715 14.574,0 26.309,11.363 26.906,25.715 z m 82.442,-54.414 H 146.688 V 84.086 h 218.625 z"
       class="st0" /></g><path
     d="M 62.697128,89.552546 A 255.08731,255.03984 0 0 1 422.04516,62.343369 255.08731,255.03984 0 0 1 449.99784,421.56785 255.08731,255.03984 0 0 1 90.764709,450.25353 255.08731,255.03984 0 0 1 61.335484,91.146953"
     id="path4490"
     style="opacity:0.18900003;fill:#000000;fill-opacity:1;fill-rule:nonzero;stroke:#b3b3b3;stroke-width:1.83888686;stroke-linejoin:round;stroke-miterlimit:4;stroke-dasharray:none;stroke-opacity:1" /></svg>