<?xml version="1.0" encoding="UTF-8" standalone="no"?>
<svg
   xmlns:dc="http://purl.org/dc/elements/1.1/"
   xmlns:cc="http://creativecommons.org/ns#"
   xmlns:rdf="http://www.w3.org/1999/02/22-rdf-syntax-ns#"
   xmlns:svg="http://www.w3.org/2000/svg"
   xmlns="http://www.w3.org/2000/svg"
   height="511.91919"
   width="512.01147"
   version="1.1"
   id="_x31_0"
   x="0px"
   y="0px"
   viewBox="0 0 512.01147 511.91919"
   style="opacity:1"
   xml:space="preserve"><metadata
     id="metadata4607"><rdf:RDF><cc:Work
         rdf:about=""><dc:format>image/svg+xml</dc:format><dc:type
           rdf:resource="http://purl.org/dc/dcmitype/StillImage" /><dc:title></dc:title></cc:Work></rdf:RDF></metadata><defs
     id="defs4605" /><style
     type="text/css"
     id="style4596" /><g
     transform="matrix(0.53389831,0,0,0.53389831,119.32796,119.28163)"
     id="g4600"><path
       class="st0"
       d="M 390.224,268.074 C 371.99,231.636 356.399,202.066 342.646,175.976 307.924,110.124 286.97,70.382 273.951,14.323 271.962,5.754 264.747,0 255.997,0 c -8.746,0 -15.961,5.754 -17.949,14.324 -13.023,56.051 -33.977,95.793 -68.684,161.633 -13.758,26.094 -29.347,55.668 -47.586,92.118 -30.614,61.172 -31.176,121.238 -1.59,169.129 28.075,45.437 81.383,74.796 135.813,74.796 54.426,0 107.734,-29.359 135.809,-74.797 29.589,-47.886 29.023,-107.957 -1.586,-169.129 z m -10.649,102.739 c -0.558,2.882 -1.246,5.726 -2.035,8.531 -0.519,1.832 -1.07,3.656 -1.687,5.461 -0.703,2.074 -1.457,4.125 -2.282,6.148 -0.965,2.36 -2.008,4.688 -3.133,6.993 -0.766,1.57 -1.546,3.137 -2.386,4.671 -1.355,2.489 -2.832,4.922 -4.379,7.329 -1.074,1.671 -2.179,3.32 -3.34,4.941 -1.457,2.043 -3,4.039 -4.59,6.008 -1.718,2.118 -3.508,4.172 -5.363,6.18 -1.195,1.301 -2.418,2.582 -3.676,3.843 -2.398,2.395 -4.898,4.692 -7.48,6.902 -0.91,0.786 -1.828,1.563 -2.77,2.325 -2.863,2.324 -5.828,4.531 -8.883,6.621 -0.871,0.598 -1.75,1.187 -2.637,1.77 -1.578,1.027 -3.16,2.047 -4.777,3.012 -15.84,9.43 -32.692,14.437 -50.066,18.277 -9.902,2.188 -18.024,-7.886 -13.657,-17.039 l 17.118,-35.878 c 1.938,-4.055 5.957,-6.859 10.449,-6.887 18.707,-0.117 37.41,-5.43 52.852,-16.109 17.371,-12.016 27.336,-28.184 34.926,-47.458 l 5.754,5.922 c 2.458,2.535 3.801,6.031 3.426,9.539 -0.176,1.668 -0.442,3.308 -0.699,4.953 -0.208,1.319 -0.427,2.632 -0.685,3.945 z M 210.486,297.867 c -1.523,0.875 -3.086,1.59 -4.66,2.187 -0.172,0.062 -0.344,0.126 -0.516,0.188 -8.25,2.949 -16.902,2.05 -22.957,-3.258 -9.79,-8.594 -9.062,-25.422 1.613,-37.594 2.665,-3.035 5.696,-5.492 8.898,-7.336 0.012,-0.007 0.024,-0.015 0.035,-0.023 1.52,-0.875 3.082,-1.59 4.661,-2.187 0.171,-0.062 0.347,-0.126 0.523,-0.192 8.246,-2.945 16.898,-2.046 22.949,3.262 9.79,8.59 9.066,25.422 -1.617,37.59 -2.66,3.035 -5.687,5.488 -8.886,7.336 -0.016,0.008 -0.028,0.019 -0.043,0.027 z"
       id="path4598" /></g><path
     d="M 62.671773,89.531207 A 255.12041,255.07446 0 0 1 422.06642,62.318337 255.12041,255.07446 0 0 1 450.02274,421.59158 255.12041,255.07446 0 0 1 90.742995,450.28115 255.12041,255.07446 0 0 1 61.309952,91.12583"
     id="path4485"
     style="opacity:0.203;fill:#000000;fill-opacity:1;fill-rule:nonzero;stroke:#b3b3b3;stroke-width:1.77171838;stroke-linejoin:round;stroke-miterlimit:4;stroke-dasharray:none;stroke-opacity:1" /></svg>